<?xml version="1.0" encoding="UTF-8"?><svg id="Camada_2" xmlns="http://www.w3.org/2000/svg" xmlns:xlink="http://www.w3.org/1999/xlink" viewBox="0 0 863.28 176.79"><defs><style>.cls-1{fill:url(#Gradiente_sem_nome_5);}.cls-2{fill:url(#Gradiente_sem_nome_5-5);}.cls-3{fill:url(#Gradiente_sem_nome_5-6);}.cls-4{fill:#1a1a1a;}.cls-5{fill:#238878;}.cls-6{fill:url(#Gradiente_sem_nome_5-4);}.cls-7{fill:url(#Gradiente_sem_nome_5-3);}.cls-8{fill:url(#Gradiente_sem_nome_5-2);}</style><linearGradient id="Gradiente_sem_nome_5" x1="5.91" y1="162.99" x2="159.64" y2="23.61" gradientUnits="userSpaceOnUse"><stop offset="0" stop-color="#238878"/><stop offset="1" stop-color="#5ecd81"/></linearGradient><linearGradient id="Gradiente_sem_nome_5-2" x1="-18.34" y1="136.24" x2="135.38" y2="-3.14" xlink:href="#Gradiente_sem_nome_5"/><linearGradient id="Gradiente_sem_nome_5-3" x1="34.71" y1="194.75" x2="188.44" y2="55.37" xlink:href="#Gradiente_sem_nome_5"/><linearGradient id="Gradiente_sem_nome_5-4" x1="-6.19" y1="149.65" x2="147.54" y2="10.27" xlink:href="#Gradiente_sem_nome_5"/><linearGradient id="Gradiente_sem_nome_5-5" x1="-11.37" y1="143.93" x2="142.35" y2="4.54" xlink:href="#Gradiente_sem_nome_5"/><linearGradient id="Gradiente_sem_nome_5-6" x1="11.2" y1="168.82" x2="164.93" y2="29.44" xlink:href="#Gradiente_sem_nome_5"/></defs><g id="Camada_1-2"><path class="cls-1" d="M116.4,5.08c-4.86,1.63-9.26,1.3-13.5,1.97-17.14,2.74-33.22,8.23-47.22,18.7-10.32,7.72-18.67,17.06-21.06,30.37-3.39,18.92,7.7,34.02,26.74,36.64,13.25,1.82,24.93-2.21,35.84-9.24,9.84-6.34,17.28-14.96,23.5-24.75.49-.77.75-2.25,2.1-1.68,1.09.46.76,1.78.81,2.76.66,13.71-4.77,24.99-13.65,35.03-7.86,8.88-17.79,15.23-26.95,22.53-6.53,5.21-12.14,11.22-15.67,19-4.72,10.4-3.01,23.03,4.73,30.91-2.36-5.62-3.3-11.43-2.96-17.49.37-6.62,2.82-12.36,6.83-17.54,1.26-1.62,2.46-2.38,4.46-.92,23.67,17.24,53.42,7.99,70.6-13.46,14.97-18.7,19.6-40.23,16.74-63.67-.09-.73-.17-1.47-.27-2.37,13.58,9.09,11.2,59.15-3.37,82.05-28.09,44.17-80.7,53.32-118.52,31.55C-2.15,138.01-11.23,82.24,12.9,42.55,37.64,1.85,85.8-7.2,116.4,5.08Z"/><path class="cls-8" d="M65.94,41.37c10.3.07,18.64,8.51,18.65,18.86.02,9.87-9.14,18.87-19,18.68-10.18-.2-18.8-9.01-18.6-19.03.2-10.43,8.55-18.58,18.95-18.51Z"/><path class="cls-7" d="M89.85,131.5c2.68-.56,5.23-1.02,7.75-1.64,17.56-4.33,28.57-15.85,35.18-32.16,2.31-5.69,3.85-11.59,4.61-17.7.11-.86-.03-2.12.98-2.27,1.42-.21,1.34,1.26,1.55,2.15,2.65,11.66,3.65,23.41.97,35.19-2.3,10.11-8.63,16.64-18.63,19.22-9.68,2.5-19.43,2.21-29.05-.65-1.13-.34-2.55-.34-3.36-2.15Z"/><path class="cls-6" d="M138.32,26.71c-.61,8.1-3.99,15.3-11.42,20.34-1.94,1.31-3.36,1.21-4.88-.69-8.99-11.15-5.18-30.37,7.38-37.36,1.59-.88,2.24-.24,3.14.83,3.95,4.7,5.63,10.18,5.78,16.87Z"/><path class="cls-2" d="M106.19,53.15c-9.66-.02-18.37-6.68-20.69-15.58-.62-2.36-.07-3.45,2.24-4.23,10.91-3.67,23.94,3.16,27.08,14.23.75,2.64,0,4.12-2.61,4.86-1.98.56-3.98.78-6.03.73Z"/><path class="cls-3" d="M155,33.8c7.26.02,8.63,2.02,5.9,8.64-3.83,9.29-14.34,14.99-23.81,13.15-3.18-.62-3.85-2.07-3.17-5.07,2.15-9.44,11.23-16.74,21.08-16.72Z"/><path class="cls-5" d="M298.18,105.82c0,3.28-.68,6.1-2.05,8.45-1.37,2.36-3.25,4.29-5.64,5.79-2.39,1.5-5.18,2.61-8.35,3.33-3.18.72-6.54,1.08-10.09,1.08h-35.77V51.71h42.22c2.53,0,4.82.55,6.87,1.64,2.05,1.09,3.79,2.51,5.23,4.25,1.44,1.74,2.55,3.72,3.33,5.94.78,2.22,1.18,4.49,1.18,6.82,0,3.42-.87,6.68-2.61,9.79-1.74,3.11-4.36,5.45-7.84,7.02,4.17,1.23,7.46,3.37,9.89,6.41,2.42,3.04,3.64,7.12,3.64,12.25ZM256.26,68.72v11.17h13.63c1.37,0,2.61-.37,3.74-1.13,1.13-.75,1.69-2.25,1.69-4.51,0-1.98-.48-3.4-1.44-4.25-.96-.85-2.09-1.28-3.38-1.28h-14.25ZM277.89,101.72c0-1.78-.48-3.26-1.43-4.46-.96-1.19-2.19-1.79-3.69-1.79h-16.5v12.2h15.78c1.64,0,3.02-.51,4.15-1.54s1.69-2.49,1.69-4.41Z"/><path class="cls-5" d="M349.01,107.36c2.32,0,4.3-.51,5.94-1.54,1.64-1.03,2.97-2.37,4-4.05,1.03-1.67,1.78-3.6,2.25-5.79.48-2.19.72-4.47.72-6.87v-37.41h19.98v37.41c0,5.06-.65,9.79-1.95,14.19-1.3,4.41-3.31,8.22-6.05,11.43-2.73,3.21-6.17,5.74-10.3,7.58-4.13,1.84-9,2.77-14.6,2.77s-10.78-.97-14.91-2.92c-4.13-1.95-7.53-4.56-10.2-7.84-2.66-3.28-4.61-7.09-5.84-11.43-1.23-4.34-1.84-8.93-1.84-13.79v-37.41h19.98v37.41c0,2.39.24,4.7.72,6.92.48,2.22,1.23,4.17,2.25,5.84,1.03,1.68,2.34,3.01,3.95,4,1.6.99,3.57,1.49,5.89,1.49Z"/><path class="cls-5" d="M418.39,51.71l13.02,31.46,13.32-31.46h21.73l-25.11,48.68v24.08h-19.88v-24.29l-24.7-48.48h21.62Z"/><path class="cls-4" d="M485.42,124.47V51.71h47.35v4.71h-42.12v28.9h35.77v4.51h-35.77v34.64h-5.23Z"/><path class="cls-4" d="M571.4,51.71h4.51l30.75,72.77h-5.53l-10.15-23.98h-34.74l-10.15,23.98h-5.64l30.95-72.77ZM589.55,96.19l-15.89-38.12-16.19,38.12h32.08Z"/><path class="cls-4" d="M627.98,124.47V51.71h30.23c3.07,0,5.91.65,8.51,1.95,2.6,1.3,4.83,3.02,6.71,5.18,1.88,2.15,3.35,4.58,4.41,7.28,1.06,2.7,1.59,5.42,1.59,8.15s-.41,5.24-1.23,7.74c-.82,2.5-1.98,4.73-3.48,6.71-1.5,1.98-3.32,3.62-5.43,4.92-2.12,1.3-4.44,2.15-6.97,2.56l18.14,28.29h-6.05l-17.63-27.47h-23.57v27.47h-5.23ZM633.2,92.19h25.52c2.32,0,4.44-.51,6.35-1.54,1.91-1.03,3.55-2.37,4.92-4.05,1.37-1.67,2.41-3.59,3.13-5.74.72-2.15,1.08-4.36,1.08-6.61s-.43-4.56-1.28-6.71c-.85-2.15-2.02-4.05-3.48-5.69-1.47-1.64-3.18-2.95-5.13-3.95-1.95-.99-4.05-1.49-6.3-1.49h-24.8v35.77Z"/><path class="cls-4" d="M770.64,124.47v-62.93l-28.7,49.09h-3.28l-28.7-49.09v62.93h-5.23V51.71h5.23l30.34,52.06,30.34-52.06h5.23v72.77h-5.23Z"/><path class="cls-4" d="M828.03,51.71h4.51l30.75,72.77h-5.53l-10.15-23.98h-34.74l-10.15,23.98h-5.64l30.95-72.77ZM846.17,96.19l-15.89-38.12-16.19,38.12h32.08Z"/></g></svg>